<svg width="30" height="29" viewBox="0 0 30 29" fill="none" xmlns="http://www.w3.org/2000/svg">
<path d="M4.20389 0C2.91962 0 1.85329 1.06633 1.85329 2.3506V5.24274C1.45899 5.46095 1.09659 5.73941 0.805208 6.09708C0.127708 6.92795 -0.142654 8.02202 0.0722511 9.07326V9.0756C0.707126 12.1642 1.58969 16.4595 1.64554 16.732C1.58977 17.0039 0.710687 21.2808 0.0769196 24.3697C-0.139738 25.4261 0.132729 26.5248 0.812211 27.3598V27.3622C1.49349 28.1972 2.5159 28.6834 3.59465 28.6834H26.356C27.4461 28.6834 28.4795 28.192 29.1688 27.3482V27.3458C29.8571 26.5011 30.1323 25.3905 29.9134 24.323C29.2798 21.2359 28.4097 17.0028 28.3541 16.732C28.41 16.4594 29.2936 12.1577 29.9274 9.06859C30.1425 8.02003 29.8739 6.92566 29.1968 6.09475L29.1945 6.09241C28.9029 5.73503 28.5409 5.4579 28.1464 5.24041V2.3506C28.1464 1.06633 27.08 0 25.7958 0H4.20389ZM4.24357 2.39028H25.7561V4.78056H4.24357V2.39028ZM11.5405 12.0471C12.0902 12.0471 12.592 12.1129 13.0437 12.2455C13.4967 12.3782 13.8858 12.5755 14.2109 12.8384C14.5359 13.1014 14.789 13.4269 14.9695 13.8141C15.15 14.2014 15.2379 14.6507 15.2379 15.161C15.2379 15.3964 15.2035 15.6283 15.1306 15.8589C15.0576 16.0884 14.9506 16.3047 14.8084 16.5079C14.7511 16.5891 14.6653 16.6578 14.5983 16.7343H10.2986V18.394H11.4518C11.7266 18.394 11.9752 18.4252 12.1987 18.4873C12.421 18.5495 12.6106 18.6465 12.7659 18.7768C12.9213 18.907 13.0383 19.0754 13.1208 19.2833C13.2032 19.4913 13.2445 19.7387 13.2445 20.0279C13.2445 20.2526 13.2077 20.4567 13.1324 20.6395C13.0571 20.8224 12.9479 20.9784 12.8056 21.111C12.6634 21.2437 12.4895 21.3475 12.2851 21.4168C12.0795 21.4873 11.851 21.5219 11.5965 21.5219C11.3658 21.5219 11.1529 21.4873 10.9569 21.4168C10.7621 21.3463 10.5938 21.2505 10.4504 21.1274C10.3081 21.0043 10.1966 20.8582 10.1166 20.6885C10.0365 20.5188 9.99752 20.3315 9.99752 20.126H7.82899C7.82899 20.6662 7.93605 21.131 8.14878 21.5242C8.36152 21.9162 8.64133 22.2417 8.98912 22.5022C9.3369 22.7628 9.73147 22.9568 10.1773 23.0811C10.6218 23.2066 11.0779 23.2679 11.5428 23.2679C12.0926 23.2679 12.6031 23.1954 13.0764 23.0531C13.5485 22.9109 13.9588 22.7047 14.3042 22.4322C14.6496 22.1597 14.9193 21.8242 15.1165 21.4238C15.3137 21.0234 15.413 20.5686 15.413 20.0583C15.413 19.4583 15.2625 18.9388 14.9602 18.499C14.6578 18.0592 14.1984 17.7292 13.5829 17.5093C13.8483 17.3898 14.0823 17.2425 14.2879 17.0704C14.411 16.9665 14.4991 16.8478 14.6007 16.7343H20.0021V23.1185H22.1707V16.732H20.0021V14.7642L17.4135 15.5672V13.8048L21.9372 12.1825H22.1707V16.732H25.9148L25.9638 16.9724C25.9638 16.9724 26.916 21.6185 27.5698 24.8038C27.6439 25.1689 27.5528 25.5459 27.3177 25.8356C27.0795 26.1271 26.7312 26.2931 26.356 26.2931H3.59465C3.23206 26.2931 2.89503 26.1308 2.66561 25.8496C2.4379 25.5686 2.34577 25.2036 2.41818 24.8505C3.07195 21.6641 4.03582 16.9724 4.03582 16.9724L4.08484 16.732H10.2963H11.4144C11.8363 16.732 12.4108 16.561 12.6749 16.2861C12.939 16.0112 13.0717 15.6455 13.0717 15.1914C13.0717 14.9918 13.0428 14.8044 12.983 14.6311C12.9233 14.459 12.8295 14.3095 12.7076 14.1876C12.5845 14.0657 12.433 13.971 12.2477 13.9005C12.0625 13.83 11.8439 13.7955 11.5942 13.7955C11.3946 13.7955 11.2073 13.8221 11.0293 13.8795C10.8524 13.9369 10.6951 14.0194 10.5624 14.1246C10.4297 14.2298 10.325 14.358 10.2473 14.5097C10.1696 14.6627 10.1329 14.8333 10.1329 15.0233H7.96438C7.96438 14.5727 8.05685 14.1647 8.24449 13.7978C8.43213 13.4309 8.68744 13.1187 9.01013 12.8618C9.33281 12.6036 9.71188 12.4041 10.1469 12.2619C10.5819 12.1196 11.0457 12.0471 11.5405 12.0471Z" fill="#FDFDF5"/>
</svg>
