<svg width="15" height="15" viewBox="0 0 15 15" fill="none" xmlns="http://www.w3.org/2000/svg">
    <path d="M14.6418 0.420671C14.2277 0.00656368 13.5588 0.00656368 13.1447 0.420671L7.95239 5.60232L2.76013 0.410052C2.34602 -0.00405469 1.67708 -0.00405469 1.26297 0.410052C0.848866 0.824159 0.848866 1.4931 1.26297 1.90721L6.45524 7.09947L1.26297 12.2917C0.848866 12.7058 0.848866 13.3748 1.26297 13.7889C1.67708 14.203 2.34602 14.203 2.76013 13.7889L7.95239 8.59663L13.1447 13.7889C13.5588 14.203 14.2277 14.203 14.6418 13.7889C15.0559 13.3748 15.0559 12.7058 14.6418 12.2917L9.44955 7.09947L14.6418 1.90721C15.0453 1.50372 15.0453 0.824159 14.6418 0.420671Z" fill="black"/>
</svg>
