<svg width="24" height="24" viewBox="0 0 24 24" fill="none" xmlns="http://www.w3.org/2000/svg">
<g filter="url(#filter0_d_94_3)">
<path d="M20 0H4C3 0 2 0.9 2 2V5.01C2 5.73 2.43 6.35 3 6.7V18C3 19.1 4.1 20 5 20H19C19.9 20 21 19.1 21 18V6.7C21.57 6.35 22 5.73 22 5.01V2C22 0.9 21 0 20 0ZM15 12H9V10H15V12ZM20 5H4V2L20 1.98V5Z" fill="#11285E"/>
</g>
<defs>
<filter id="filter0_d_94_3" x="0" y="0" width="24" height="24" filterUnits="userSpaceOnUse" color-interpolation-filters="sRGB">
<feFlood flood-opacity="0" result="BackgroundImageFix"/>
<feColorMatrix in="SourceAlpha" type="matrix" values="0 0 0 0 0 0 0 0 0 0 0 0 0 0 0 0 0 0 127 0" result="hardAlpha"/>
<feOffset dy="2"/>
<feGaussianBlur stdDeviation="1"/>
<feComposite in2="hardAlpha" operator="out"/>
<feColorMatrix type="matrix" values="0 0 0 0 0 0 0 0 0 0 0 0 0 0 0 0 0 0 0.25 0"/>
<feBlend mode="normal" in2="BackgroundImageFix" result="effect1_dropShadow_94_3"/>
<feBlend mode="normal" in="SourceGraphic" in2="effect1_dropShadow_94_3" result="shape"/>
</filter>
</defs>
</svg>
