<svg width="24" height="30" viewBox="0 0 24 30" fill="none" xmlns="http://www.w3.org/2000/svg">
<path d="M12 29.1666C11.2485 29.1666 10.5279 28.8681 9.99652 28.3367C9.46517 27.8054 9.16666 27.0847 9.16666 26.3333H14.8333C14.8333 27.0847 14.5348 27.8054 14.0035 28.3367C13.4721 28.8681 12.7514 29.1666 12 29.1666ZM23.3333 24.9166H0.666656V22.0833L3.49999 20.6666V12.8749C3.49999 7.97042 5.51307 4.79 9.16666 3.92158V0.833252H14.8333V3.92158C18.4869 4.78858 20.5 7.96758 20.5 12.8749V20.6666L23.3333 22.0833V24.9166ZM12 6.14575C11.1492 6.09081 10.2982 6.25005 9.52478 6.6089C8.7514 6.96775 8.08032 7.51477 7.57291 8.19992C6.6911 9.59471 6.25843 11.2265 6.33332 12.8749V22.0833H17.6667V12.8749C17.7415 11.2265 17.3088 9.59474 16.4271 8.19992C15.9197 7.51477 15.2486 6.96775 14.4752 6.6089C13.7018 6.25005 12.8508 6.09081 12 6.14575Z" fill="#E7E7E7"/>
</svg>
