<svg width="30" height="30" viewBox="0 0 30 30" fill="none" xmlns="http://www.w3.org/2000/svg">
<path d="M15 29C7.26801 29 1 22.732 1 15C1 7.26801 7.26801 1 15 1C22.732 1 29 7.26801 29 15C29 22.732 22.732 29 15 29Z" stroke="black" stroke-width="2"/>
<path d="M18.4595 10.5406C18.4595 12.2282 17.0931 13.5947 15.4055 13.5947C13.7179 13.5947 12.3514 12.2282 12.3514 10.5406C12.3514 8.85305 13.7179 7.48657 15.4055 7.48657C17.0931 7.48657 18.4595 8.85305 18.4595 10.5406ZM8.29736 20.6758C8.29736 20.3691 8.44306 20.0264 8.86194 19.6398C9.28761 19.2469 9.92515 18.8799 10.7085 18.566C12.2768 17.9378 14.1774 17.6217 15.4055 17.6217C16.6335 17.6217 18.5341 17.9378 20.1024 18.566C20.8858 18.8799 21.5233 19.2469 21.949 19.6398C22.3679 20.0264 22.5136 20.3691 22.5136 20.6758C22.5136 21.243 22.0538 21.7028 21.4866 21.7028H9.32439C8.75718 21.7028 8.29736 21.243 8.29736 20.6758Z" fill="black" stroke="black" stroke-width="2"/>
</svg>
