<svg width="28" height="29" viewBox="0 0 28 29" fill="none" xmlns="http://www.w3.org/2000/svg">
<g filter="url(#filter0_d_161_89)">
<path fill-rule="evenodd" clip-rule="evenodd" d="M2.39999 0.900024H22.55V4.15002H21.25V2.20002H3.69999V17.15H17.6015V18.45H2.39999V0.900024ZM21.9 9.35002C22.4172 9.35002 22.9132 9.14458 23.2789 8.77888C23.6445 8.41319 23.85 7.9172 23.85 7.40002C23.85 6.88285 23.6445 6.38686 23.2789 6.02117C22.9132 5.65547 22.4172 5.45002 21.9 5.45002C21.3828 5.45002 20.8868 5.65547 20.5211 6.02117C20.1554 6.38686 19.95 6.88285 19.95 7.40002C19.95 7.9172 20.1554 8.41319 20.5211 8.77888C20.8868 9.14458 21.3828 9.35002 21.9 9.35002ZM23.2201 10.6565C24.0645 10.6565 24.7327 11.0361 25.1701 11.6224C25.579 12.1717 25.7519 12.8509 25.7909 13.4782C25.8291 14.1216 25.7414 14.7663 25.5328 15.3762C25.3378 15.9417 25.0083 16.5267 24.5 16.9277V23.325C24.5005 23.57 24.4087 23.8062 24.243 23.9866C24.0772 24.1669 23.8497 24.2783 23.6055 24.2986C23.3614 24.3188 23.1186 24.2464 22.9254 24.0958C22.7323 23.9451 22.6029 23.7273 22.563 23.4856L21.7245 18.45H21.5308L20.5831 23.5044C20.5381 23.743 20.4057 23.9562 20.2119 24.1023C20.018 24.2484 19.7766 24.3169 19.5349 24.2945C19.2932 24.2721 19.0685 24.1603 18.9049 23.981C18.7412 23.8017 18.6503 23.5678 18.65 23.325V14.0515C18.52 14.2495 18.3917 14.4486 18.2652 14.6488L18.2145 14.7288L18.2015 14.7496L18.1982 14.7554C18.1106 14.8961 17.9886 15.0121 17.8437 15.0925C17.6988 15.1729 17.5359 15.2151 17.3701 15.215H14.1201C13.8616 15.215 13.6136 15.1123 13.4307 14.9294C13.2479 14.7466 13.1451 14.4986 13.1451 14.24C13.1451 13.9814 13.2479 13.7334 13.4307 13.5505C13.6136 13.3677 13.8616 13.265 14.1201 13.265H16.8352C16.9931 13.0206 17.2011 12.7034 17.4195 12.3849C17.647 12.0527 17.8979 11.7011 18.1215 11.4255C18.2301 11.2909 18.3516 11.1505 18.4738 11.0355C18.5336 10.9789 18.6168 10.9055 18.7182 10.8405C18.8972 10.723 19.1061 10.6594 19.3201 10.6572H23.2201V10.6565Z" fill="#233255"/>
</g>
<defs>
<filter id="filter0_d_161_89" x="0.399994" y="0.900024" width="27.3996" height="27.4019" filterUnits="userSpaceOnUse" color-interpolation-filters="sRGB">
<feFlood flood-opacity="0" result="BackgroundImageFix"/>
<feColorMatrix in="SourceAlpha" type="matrix" values="0 0 0 0 0 0 0 0 0 0 0 0 0 0 0 0 0 0 127 0" result="hardAlpha"/>
<feOffset dy="2"/>
<feGaussianBlur stdDeviation="1"/>
<feComposite in2="hardAlpha" operator="out"/>
<feColorMatrix type="matrix" values="0 0 0 0 0 0 0 0 0 0 0 0 0 0 0 0 0 0 0.25 0"/>
<feBlend mode="normal" in2="BackgroundImageFix" result="effect1_dropShadow_161_89"/>
<feBlend mode="normal" in="SourceGraphic" in2="effect1_dropShadow_161_89" result="shape"/>
</filter>
</defs>
</svg>
