<svg width="30" height="28" viewBox="0 0 30 28" fill="none" xmlns="http://www.w3.org/2000/svg">
<g filter="url(#filter0_d_1_197)">
<path d="M26.543 4.60937L15.293 0.859366C15.1021 0.800622 14.8979 0.800622 14.707 0.859366L3.46874 4.60937H3.44531L3.32812 4.66796H3.3164L3.19921 4.73827C3.19921 4.74999 3.18749 4.74999 3.17577 4.76171L3.08202 4.84374L2.99999 4.93749C2.99999 4.94921 2.98827 4.94921 2.98827 4.96093L2.91796 5.0664C2.91796 5.07812 2.91796 5.07812 2.90624 5.08983L2.85937 5.1953L2.82421 5.32421V5.35937C2.81265 5.40529 2.80869 5.45279 2.81249 5.49999V14.875C2.81249 15.1236 2.91127 15.3621 3.08708 15.5379C3.2629 15.7137 3.50135 15.8125 3.74999 15.8125C3.99863 15.8125 4.23709 15.7137 4.41291 15.5379C4.58872 15.3621 4.68749 15.1236 4.68749 14.875V6.80077L8.62499 8.11327C7.88526 9.29733 7.49527 10.6664 7.49999 12.0625C7.50042 13.3322 7.82321 14.5811 8.43811 15.692C9.05301 16.8029 9.93988 17.7395 11.0156 18.4141C8.78015 19.2597 6.8717 20.7947 5.5664 22.7969C5.43335 23.0073 5.38828 23.2615 5.44088 23.5048C5.49349 23.7481 5.63957 23.961 5.84765 24.0976C5.94976 24.1653 6.06429 24.212 6.18459 24.2351C6.30488 24.2582 6.42857 24.2572 6.54847 24.2321C6.66837 24.207 6.7821 24.1584 6.88308 24.0891C6.98405 24.0197 7.07026 23.931 7.13671 23.8281C7.98764 22.5174 9.15273 21.4401 10.526 20.6944C11.8993 19.9486 13.4373 19.558 15 19.558C16.5627 19.558 18.1007 19.9486 19.474 20.6944C20.8473 21.4401 22.0123 22.5174 22.8633 23.8281C22.9489 23.9581 23.0654 24.0647 23.2025 24.1383C23.3396 24.212 23.4928 24.2504 23.6484 24.25C23.828 24.2519 24.0039 24.1987 24.1523 24.0976C24.3604 23.961 24.5065 23.7481 24.5591 23.5048C24.6117 23.2615 24.5666 23.0073 24.4336 22.7969C23.1283 20.7947 21.2198 19.2597 18.9844 18.4141C20.0601 17.7395 20.947 16.8029 21.5619 15.692C22.1768 14.5811 22.4996 13.3322 22.5 12.0625C22.5047 10.6664 22.1147 9.29733 21.375 8.11327L26.543 6.39062C26.7305 6.32897 26.8938 6.20968 27.0096 6.04975C27.1254 5.88982 27.1877 5.69743 27.1877 5.49999C27.1877 5.30256 27.1254 5.11016 27.0096 4.95023C26.8938 4.79031 26.7305 4.67102 26.543 4.60937ZM15 17.6875C13.5081 17.6875 12.0774 17.0949 11.0225 16.04C9.96762 14.9851 9.37499 13.5543 9.37499 12.0625C9.37725 10.8622 9.75869 9.69327 10.4648 8.72265L14.707 10.1406C14.8973 10.2032 15.1027 10.2032 15.293 10.1406L19.5351 8.72265C20.2413 9.69327 20.6227 10.8622 20.625 12.0625C20.625 13.5543 20.0324 14.9851 18.9775 16.04C17.9226 17.0949 16.4918 17.6875 15 17.6875Z" fill="#FDFDF5"/>
</g>
<defs>
<filter id="filter0_d_1_197" x="-1.1889" y="0.815308" width="32.3766" height="31.4364" filterUnits="userSpaceOnUse" color-interpolation-filters="sRGB">
<feFlood flood-opacity="0" result="BackgroundImageFix"/>
<feColorMatrix in="SourceAlpha" type="matrix" values="0 0 0 0 0 0 0 0 0 0 0 0 0 0 0 0 0 0 127 0" result="hardAlpha"/>
<feOffset dy="4"/>
<feGaussianBlur stdDeviation="2"/>
<feComposite in2="hardAlpha" operator="out"/>
<feColorMatrix type="matrix" values="0 0 0 0 0 0 0 0 0 0 0 0 0 0 0 0 0 0 0.2 0"/>
<feBlend mode="normal" in2="BackgroundImageFix" result="effect1_dropShadow_1_197"/>
<feBlend mode="normal" in="SourceGraphic" in2="effect1_dropShadow_1_197" result="shape"/>
</filter>
</defs>
</svg>
