<svg width="32" height="30" viewBox="0 0 32 30" fill="none" xmlns="http://www.w3.org/2000/svg">
<g filter="url(#filter0_d_140_118)">
<path d="M28.1047 4.8738L16.4047 0.973799C16.2061 0.912705 15.9938 0.912705 15.7953 0.973799L4.10748 4.8738H4.0831L3.96123 4.93474H3.94904L3.82716 5.00786C3.82716 5.02005 3.81498 5.02005 3.80279 5.03224L3.70529 5.11755L3.61998 5.21505C3.61998 5.22724 3.60779 5.22724 3.60779 5.23942L3.53466 5.34911C3.53466 5.3613 3.53466 5.3613 3.52248 5.37349L3.47373 5.48317L3.43716 5.61724V5.6538C3.42514 5.70156 3.42103 5.75096 3.42498 5.80005V15.55C3.42498 15.8086 3.5277 16.0566 3.71055 16.2395C3.8934 16.4223 4.14139 16.5251 4.39998 16.5251C4.65856 16.5251 4.90656 16.4223 5.0894 16.2395C5.27225 16.0566 5.37498 15.8086 5.37498 15.55V7.15286L9.46997 8.51786C8.70065 9.74928 8.29506 11.1731 8.29997 12.625C8.30042 13.9456 8.63612 15.2444 9.27562 16.3997C9.91511 17.5551 10.8375 18.5291 11.9562 19.2307C9.63134 20.1102 7.64655 21.7065 6.28904 23.7888C6.15067 24.0076 6.10379 24.272 6.1585 24.5251C6.21321 24.7781 6.36514 24.9995 6.58154 25.1416C6.68774 25.212 6.80684 25.2606 6.93195 25.2846C7.05706 25.3086 7.18569 25.3075 7.31039 25.2814C7.43508 25.2554 7.55337 25.2048 7.65838 25.1327C7.7634 25.0606 7.85305 24.9683 7.92216 24.8613C8.80713 23.4981 10.0188 22.3778 11.4471 21.6022C12.8753 20.8266 14.4747 20.4203 16.1 20.4203C17.7252 20.4203 19.3247 20.8266 20.7529 21.6022C22.1811 22.3778 23.3928 23.4981 24.2778 24.8613C24.3668 24.9965 24.488 25.1073 24.6306 25.1839C24.7731 25.2605 24.9325 25.3004 25.0943 25.3001C25.2811 25.302 25.464 25.2467 25.6184 25.1416C25.8348 24.9995 25.9867 24.7781 26.0414 24.5251C26.0962 24.272 26.0493 24.0076 25.9109 23.7888C24.5534 21.7065 22.5686 20.1102 20.2437 19.2307C21.3625 18.5291 22.2848 17.5551 22.9243 16.3997C23.5638 15.2444 23.8995 13.9456 23.9 12.625C23.9049 11.1731 23.4993 9.74928 22.73 8.51786L28.1047 6.7263C28.2997 6.66218 28.4696 6.53812 28.59 6.3718C28.7104 6.20547 28.7752 6.00538 28.7752 5.80005C28.7752 5.59472 28.7104 5.39462 28.59 5.2283C28.4696 5.06198 28.2997 4.93791 28.1047 4.8738ZM16.1 18.4751C14.5485 18.4751 13.0605 17.8587 11.9634 16.7616C10.8663 15.6645 10.25 14.1766 10.25 12.625C10.2523 11.3767 10.649 10.1611 11.3834 9.15161L15.7953 10.6263C15.9932 10.6914 16.2068 10.6914 16.4047 10.6263L20.8165 9.15161C21.5509 10.1611 21.9476 11.3767 21.95 12.625C21.95 14.1766 21.3336 15.6645 20.2365 16.7616C19.1395 17.8587 17.6515 18.4751 16.1 18.4751Z" fill="#11285E"/>
</g>
<defs>
<filter id="filter0_d_140_118" x="0.303523" y="0.927979" width="31.5917" height="30.6138" filterUnits="userSpaceOnUse" color-interpolation-filters="sRGB">
<feFlood flood-opacity="0" result="BackgroundImageFix"/>
<feColorMatrix in="SourceAlpha" type="matrix" values="0 0 0 0 0 0 0 0 0 0 0 0 0 0 0 0 0 0 127 0" result="hardAlpha"/>
<feOffset dy="3.12"/>
<feGaussianBlur stdDeviation="1.56"/>
<feComposite in2="hardAlpha" operator="out"/>
<feColorMatrix type="matrix" values="0 0 0 0 0 0 0 0 0 0 0 0 0 0 0 0 0 0 0.25 0"/>
<feBlend mode="normal" in2="BackgroundImageFix" result="effect1_dropShadow_140_118"/>
<feBlend mode="normal" in="SourceGraphic" in2="effect1_dropShadow_140_118" result="shape"/>
</filter>
</defs>
</svg>
